<?xml version="1.0" encoding="UTF-8" standalone="no"?>
<svg
   xmlns:dc="http://purl.org/dc/elements/1.1/"
   xmlns:cc="http://creativecommons.org/ns#"
   xmlns:rdf="http://www.w3.org/1999/02/22-rdf-syntax-ns#"
   xmlns:svg="http://www.w3.org/2000/svg"
   xmlns="http://www.w3.org/2000/svg"
   xmlns:sodipodi="http://sodipodi.sourceforge.net/DTD/sodipodi-0.dtd"
   xmlns:inkscape="http://www.inkscape.org/namespaces/inkscape"
   width="128"
   height="128"
   viewBox="0 0 128 128"
   version="1.1"
   id="svg8"
   inkscape:version="1.0.1 (3bc2e813f5, 2020-09-07)"
   sodipodi:docname="Icon.Inkscape.svg"
   inkscape:export-filename="D:\Private\WebExtension\login-to-salesforce-by-query\icons\icon128.png"
   inkscape:export-xdpi="96"
   inkscape:export-ydpi="96">
  <defs
     id="defs2" />
  <sodipodi:namedview
     id="base"
     pagecolor="#ffffff"
     bordercolor="#666666"
     borderopacity="1.0"
     inkscape:pageopacity="0"
     inkscape:pageshadow="2"
     inkscape:zoom="4.1358247"
     inkscape:cx="56.489011"
     inkscape:cy="76.215938"
     inkscape:document-units="px"
     inkscape:current-layer="layer2"
     inkscape:document-rotation="0"
     showgrid="false"
     units="px"
     inkscape:pagecheckerboard="true"
     inkscape:window-width="1662"
     inkscape:window-height="1040"
     inkscape:window-x="52"
     inkscape:window-y="0"
     inkscape:window-maximized="0" />
  <metadata
     id="metadata5">
    <rdf:RDF>
      <cc:Work
         rdf:about="">
        <dc:format>image/svg+xml</dc:format>
        <dc:type
           rdf:resource="http://purl.org/dc/dcmitype/StillImage" />
        <dc:title />
      </cc:Work>
    </rdf:RDF>
  </metadata>
  <g
     inkscape:label="Background"
     inkscape:groupmode="layer"
     id="layer1"
     sodipodi:insensitive="true">
    <rect
       style="fill:#b7dcff;fill-opacity:1;stroke-width:5;stroke-linecap:square"
       id="rect834"
       width="96"
       height="96"
       x="16"
       y="16" />
  </g>
  <g
     inkscape:groupmode="layer"
     id="layer3"
     inkscape:label="Cloud"
     sodipodi:insensitive="true">
    <path
       id="path993-3-33"
       style="fill:#ffffff;fill-opacity:1;stroke:none;stroke-width:1.00157;stroke-linecap:square;stroke-miterlimit:4;stroke-dasharray:none;stroke-opacity:1"
       d="m 40.510388,34.198522 a 18.320153,18.320151 0 0 0 -18.320156,18.320153 18.320153,18.320151 0 0 0 4.824654,12.388222 18.320153,18.320151 0 0 0 -3.360864,10.574424 18.320153,18.320151 0 0 0 18.320152,18.320158 18.320153,18.320151 0 0 0 13.610002,-6.055545 18.320153,18.320151 0 0 0 13.607397,6.055545 18.320153,18.320151 0 0 0 17.250608,-12.15272 18.320153,18.320151 0 0 0 1.047427,0.03122 A 18.320153,18.320151 0 0 0 105.80977,63.35983 18.320153,18.320151 0 0 0 87.489608,45.039678 18.320153,18.320151 0 0 0 81.478306,46.053272 18.320153,18.320151 0 0 0 65.074741,35.891315 18.320153,18.320151 0 0 0 53.726139,39.831188 18.320153,18.320151 0 0 0 40.510388,34.198522 Z" />
  </g>
  <g
     inkscape:groupmode="layer"
     id="layer2"
     inkscape:label="Text">
    <text
       xml:space="preserve"
       style="font-style:normal;font-variant:normal;font-weight:normal;font-stretch:normal;font-size:41.3333px;line-height:1.25;font-family:'Arial Rounded MT Bold';-inkscape-font-specification:'Arial Rounded MT Bold, Normal';font-variant-ligatures:normal;font-variant-caps:normal;font-variant-numeric:normal;font-variant-east-asian:normal;fill:#333333;fill-opacity:1;stroke:none"
       x="15.078125"
       y="78.79361"
       id="text936"><tspan
         sodipodi:role="line"
         id="tspan934"
         x="15.078125"
         y="78.79361"
         style="font-style:normal;font-variant:normal;font-weight:normal;font-stretch:normal;font-size:41.3333px;font-family:'Arial Rounded MT Bold';-inkscape-font-specification:'Arial Rounded MT Bold, Normal';font-variant-ligatures:normal;font-variant-caps:normal;font-variant-numeric:normal;font-variant-east-asian:normal;fill:#333333;fill-opacity:1">?un=</tspan></text>
  </g>
</svg>
