<?xml version="1.0" encoding="UTF-8" standalone="no"?>
<svg
   xmlns:dc="http://purl.org/dc/elements/1.1/"
   xmlns:cc="http://creativecommons.org/ns#"
   xmlns:rdf="http://www.w3.org/1999/02/22-rdf-syntax-ns#"
   xmlns:svg="http://www.w3.org/2000/svg"
   xmlns="http://www.w3.org/2000/svg"
   xmlns:sodipodi="http://sodipodi.sourceforge.net/DTD/sodipodi-0.dtd"
   xmlns:inkscape="http://www.inkscape.org/namespaces/inkscape"
   width="128"
   height="128"
   viewBox="0 0 128 128"
   version="1.1"
   id="svg8"
   inkscape:version="1.0.1 (3bc2e813f5, 2020-09-07)"
   sodipodi:docname="Icon.Inkscape.svg"
   inkscape:export-filename="D:\Private\WebExtension\login-to-salesforce-by-query\docs\Icon.Inkscape.png"
   inkscape:export-xdpi="96"
   inkscape:export-ydpi="96">
  <defs
     id="defs2" />
  <sodipodi:namedview
     id="base"
     pagecolor="#ffffff"
     bordercolor="#666666"
     borderopacity="1.0"
     inkscape:pageopacity="0.0"
     inkscape:pageshadow="2"
     inkscape:zoom="2.9127426"
     inkscape:cx="52.365522"
     inkscape:cy="80.04987"
     inkscape:document-units="px"
     inkscape:current-layer="layer1"
     inkscape:document-rotation="0"
     showgrid="false"
     units="px"
     inkscape:window-width="1662"
     inkscape:window-height="1040"
     inkscape:window-x="104"
     inkscape:window-y="0"
     inkscape:window-maximized="0" />
  <metadata
     id="metadata5">
    <rdf:RDF>
      <cc:Work
         rdf:about="">
        <dc:format>image/svg+xml</dc:format>
        <dc:type
           rdf:resource="http://purl.org/dc/dcmitype/StillImage" />
        <dc:title />
      </cc:Work>
    </rdf:RDF>
  </metadata>
  <g
     inkscape:groupmode="layer"
     id="layer2"
     inkscape:label="背景"
     style="display:inline"
     sodipodi:insensitive="true">
    <rect
       style="fill:#ffffff;fill-opacity:1;stroke:none;stroke-width:5;stroke-linecap:square;stroke-linejoin:miter;stroke-miterlimit:4;stroke-dasharray:none;stroke-opacity:1"
       id="rect834"
       width="123"
       height="123"
       x="2.5"
       y="2.5" />
  </g>
  <g
     inkscape:label="雲"
     inkscape:groupmode="layer"
     id="layer1">
    <path
       id="path993-3-33"
       style="fill:#b7dcff;fill-opacity:1;stroke:none;stroke-width:1.00157;stroke-linecap:square;stroke-miterlimit:4;stroke-dasharray:none;stroke-opacity:1"
       d="M 28.740234 19.265625 A 27.5 27.499998 0 0 0 1.2402344 46.765625 A 27.5 27.499998 0 0 0 8.4824219 65.361328 A 27.5 27.499998 0 0 0 3.4375 81.234375 A 27.5 27.499998 0 0 0 30.9375 108.73438 A 27.5 27.499998 0 0 0 51.367188 99.644531 A 27.5 27.499998 0 0 0 71.792969 108.73438 A 27.5 27.499998 0 0 0 97.6875 90.492188 A 27.5 27.499998 0 0 0 99.259766 90.539062 A 27.5 27.499998 0 0 0 126.75977 63.039062 A 27.5 27.499998 0 0 0 99.259766 35.539062 A 27.5 27.499998 0 0 0 90.236328 37.060547 A 27.5 27.499998 0 0 0 65.613281 21.806641 A 27.5 27.499998 0 0 0 48.578125 27.720703 A 27.5 27.499998 0 0 0 28.740234 19.265625 z " />
  </g>
  <g
     inkscape:groupmode="layer"
     id="layer3"
     inkscape:label="文字">
    <text
       xml:space="preserve"
       style="font-style:normal;font-variant:normal;font-weight:normal;font-stretch:normal;font-size:50.9568px;line-height:1.25;font-family:'Arial Rounded MT Bold';-inkscape-font-specification:'Arial Rounded MT Bold, Normal';font-variant-ligatures:normal;font-variant-caps:normal;font-variant-numeric:normal;font-variant-east-asian:normal;fill:#333333;fill-opacity:1;stroke:none;stroke-width:0.999997;stroke-opacity:1;"
       x="3.6878505"
       y="82.237953"
       id="text972"><tspan
         sodipodi:role="line"
         id="tspan970"
         x="3.6878505"
         y="82.237953"
         style="stroke-width:0.999997;stroke:none;stroke-opacity:1;fill:#333333;fill-opacity:1;">?un=</tspan></text>
  </g>
  <g
     inkscape:groupmode="layer"
     id="g997"
     inkscape:label="枠"
     style="display:inline"
     sodipodi:insensitive="true">
    <rect
       style="fill:none;fill-opacity:1;stroke:#00a1e0;stroke-width:5;stroke-linecap:square;stroke-linejoin:miter;stroke-miterlimit:4;stroke-dasharray:none;stroke-opacity:1"
       id="rect995"
       width="123"
       height="123"
       x="2.5"
       y="2.5" />
  </g>
</svg>
